{
	"asset":{
		"generator":"Khronos glTF Blender I/O v5.0.21",
		"version":"2.0"
	},
	"extensionsUsed":[
		"KHR_materials_specular"
	],
	"scene":0,
	"scenes":[
		{
			"name":"Scene",
			"nodes":[
				0
			]
		}
	],
	"nodes":[
		{
			"mesh":0,
			"name":"m9",
			"rotation":[
				0.70710688829422,
				0,
				0,
				0.7071066498756409
			],
			"scale":[
				0.3452681303024292,
				0.3452681303024292,
				0.3452681303024292
			],
			"translation":[
				0,
				0.23814253509044647,
				-0.07938751578330994
			]
		}
	],
	"animations":[
		{
			"channels":[
				{
					"sampler":0,
					"target":{
						"node":0,
						"path":"translation"
					}
				},
				{
					"sampler":1,
					"target":{
						"node":0,
						"path":"rotation"
					}
				},
				{
					"sampler":2,
					"target":{
						"node":0,
						"path":"scale"
					}
				}
			],
			"name":"Take 001",
			"samplers":[
				{
					"input":4,
					"interpolation":"LINEAR",
					"output":5
				},
				{
					"input":4,
					"interpolation":"LINEAR",
					"output":6
				},
				{
					"input":4,
					"interpolation":"LINEAR",
					"output":7
				}
			]
		}
	],
	"materials":[
		{
			"doubleSided":true,
			"extensions":{
				"KHR_materials_specular":{
					"specularFactor":0,
					"specularColorTexture":{
						"index":0
					}
				}
			},
			"name":"M9",
			"normalTexture":{
				"index":1
			},
			"pbrMetallicRoughness":{
				"baseColorTexture":{
					"index":2
				},
				"metallicFactor":0,
				"metallicRoughnessTexture":{
					"index":3
				}
			}
		}
	],
	"meshes":[
		{
			"name":"Mesh",
			"primitives":[
				{
					"attributes":{
						"POSITION":0,
						"NORMAL":1,
						"TEXCOORD_0":2
					},
					"indices":3,
					"material":0
				}
			]
		}
	],
	"textures":[
		{
			"sampler":0,
			"source":0
		},
		{
			"sampler":0,
			"source":1
		},
		{
			"sampler":0,
			"source":2
		},
		{
			"sampler":0,
			"source":3
		}
	],
	"images":[
		{
			"mimeType":"image/png",
			"name":"M9_Metalness",
			"uri":"M9_Metalness.png"
		},
		{
			"mimeType":"image/png",
			"name":"M9_Normal",
			"uri":"M9_Normal.png"
		},
		{
			"mimeType":"image/png",
			"name":"M9_BaseColor",
			"uri":"M9_BaseColor.png"
		},
		{
			"mimeType":"image/png",
			"name":"M9_Roughness",
			"uri":"M9_Roughness.png"
		}
	],
	"accessors":[
		{
			"bufferView":0,
			"componentType":5126,
			"count":6819,
			"max":[
				0.16954299807548523,
				0.9999989867210388,
				0.6563050150871277
			],
			"min":[
				-0.16954299807548523,
				-1,
				-0.6563050150871277
			],
			"type":"VEC3"
		},
		{
			"bufferView":1,
			"componentType":5126,
			"count":6819,
			"type":"VEC3"
		},
		{
			"bufferView":2,
			"componentType":5126,
			"count":6819,
			"type":"VEC2"
		},
		{
			"bufferView":3,
			"componentType":5123,
			"count":19281,
			"type":"SCALAR"
		},
		{
			"bufferView":4,
			"componentType":5126,
			"count":1,
			"max":[
				0.03333333333333333
			],
			"min":[
				0.03333333333333333
			],
			"type":"SCALAR"
		},
		{
			"bufferView":5,
			"componentType":5126,
			"count":1,
			"type":"VEC3"
		},
		{
			"bufferView":6,
			"componentType":5126,
			"count":1,
			"type":"VEC4"
		},
		{
			"bufferView":7,
			"componentType":5126,
			"count":1,
			"type":"VEC3"
		}
	],
	"bufferViews":[
		{
			"buffer":0,
			"byteLength":81828,
			"byteOffset":0,
			"target":34962
		},
		{
			"buffer":0,
			"byteLength":81828,
			"byteOffset":81828,
			"target":34962
		},
		{
			"buffer":0,
			"byteLength":54552,
			"byteOffset":163656,
			"target":34962
		},
		{
			"buffer":0,
			"byteLength":38562,
			"byteOffset":218208,
			"target":34963
		},
		{
			"buffer":0,
			"byteLength":4,
			"byteOffset":256772
		},
		{
			"buffer":0,
			"byteLength":12,
			"byteOffset":256776
		},
		{
			"buffer":0,
			"byteLength":16,
			"byteOffset":256788
		},
		{
			"buffer":0,
			"byteLength":12,
			"byteOffset":256804
		}
	],
	"samplers":[
		{
			"magFilter":9729,
			"minFilter":9987
		}
	],
	"buffers":[
		{
			"byteLength":256816,
			"uri":"beretta.bin"
		}
	]
}
